# xmcd CD database file
#
# Track frame offsets:
#	150
#	20417
#	40462
#
# Disc length: 806 seconds
#
# Revision: 0
# Processed by: cddbd v1.5.1PL0 Copyright (c) Steve Scherf et al.
# Submitted via: CDex 1.51
#
DISCID=1e032403
DTITLE=薬師丸ひろ子 - ｓｍｉｌｅ　スマイル　ｓｍｉｌｅ
DYEAR=1998
DGENRE=JPop
TTITLE0=ｓｍｉｌｅ　スマイル　ｓｍｉｌｅ
TTITLE1=消えた年月
TTITLE2=ｓｍｉｌｅ　スマイル　ｓｍｉｌｅ（オリジナル・カラオケ）
EXTD=YEAR: 1998/04/22
EXTT0=
EXTT1=
EXTT2=
PLAYORDER=
